<svg width="27" height="24" viewBox="0 0 27 24" fill="none" xmlns="http://www.w3.org/2000/svg">
<g id="Iconly/Bold/Send">
<g id="Send">
<path id="Send_2" d="M23.6725 2.58198C23.1419 2.0686 22.3567 1.87734 21.6245 2.07866L4.55061 6.75952C3.77809 6.96186 3.23054 7.54269 3.08304 8.28055C2.93236 9.0315 3.45869 9.98479 4.14631 10.3834L9.48495 13.4768C10.0325 13.7939 10.7392 13.7144 11.1923 13.2835L17.3056 7.4843C17.6134 7.18231 18.1227 7.18231 18.4304 7.4843C18.7382 7.77623 18.7382 8.24935 18.4304 8.55134L12.3065 14.3516C11.8524 14.7814 11.7675 15.4508 12.1017 15.9702L15.3637 21.0538C15.7457 21.6577 16.4036 22 17.1252 22C17.2101 22 17.3056 22 17.3905 21.9899C18.2182 21.8893 18.8761 21.3558 19.1202 20.6008L24.1819 4.52479C24.4047 3.84028 24.2031 3.09537 23.6725 2.58198" fill="white"/>
</g>
</g>
</svg>
